<?xml version="1.0" encoding="UTF-8"?>
<svg width="100px" height="100px" viewBox="0 0 100 100" version="1.1" xmlns="http://www.w3.org/2000/svg" xmlns:xlink="http://www.w3.org/1999/xlink">
    <!-- Generator: Sketch 48.2 (47327) - http://www.bohemiancoding.com/sketch -->
    <title>github</title>
    <desc>Created with Sketch.</desc>
    <defs></defs>
    <g id="Page-1" stroke="none" stroke-width="1" fill="none" fill-rule="evenodd">
        <g id="github" fill="#A05F6F" fill-rule="nonzero">
            <path d="M50,100 C22.4277778,100 0,77.5666667 0,50 C0,22.4333333 22.4277778,0 50,0 C77.5722222,0 100,22.4333333 100,50 C100,77.5666667 77.5722222,100 50,100 Z M50,11.1111111 C28.5611111,11.1111111 11.1111111,28.5555556 11.1111111,50 C11.1111111,71.4444444 28.5611111,88.8888889 50,88.8888889 C71.4388889,88.8888889 88.8888889,71.4444444 88.8888889,50 C88.8888889,28.5555556 71.4388889,11.1111111 50,11.1111111 Z" id="Shape"></path>
            <path d="M58.5164609,53.5807186 C59.4683128,53.5807186 60.2754386,54.0484936 60.9712367,55.0007497 C61.6614685,55.9418684 62.0121507,57.105737 62.0121507,58.4812181 C62.0121507,59.862268 61.6670349,61.0261366 60.9712367,61.9672552 C60.2754386,62.9083739 59.4627464,63.3817176 58.5164609,63.3817176 C57.5089452,63.3817176 56.6405891,62.9139426 55.9503574,61.9672552 C55.2601256,61.0261366 54.9094434,59.862268 54.9094434,58.4812181 C54.9094434,57.1001683 55.2545592,55.9418684 55.9503574,55.0007497 C56.6461555,54.0484936 57.5145116,53.5807186 58.5164609,53.5807186 M70.818172,40.8338513 C73.5011696,43.7407384 74.8538012,47.2657568 74.8538012,51.4033376 C74.8538012,54.0874748 74.5365172,56.4987433 73.9297812,58.6482806 C73.3119125,60.7866804 72.5270522,62.5352677 71.5918995,63.8773363 C70.6400476,65.2249736 69.4878059,66.4055485 68.101776,67.4134922 C66.7157462,68.4381421 65.441044,69.173217 64.2888023,69.6465607 C63.1309942,70.1199044 61.8061945,70.4818731 60.3032705,70.7380356 C58.8226121,70.9997668 57.7037687,71.1389855 56.9300412,71.1779668 C56.1785792,71.2113793 55.3603206,71.2280855 54.4808317,71.2280855 C54.2860082,71.2280855 53.618042,71.2503605 52.5214642,71.283773 C51.4471518,71.328323 50.5231319,71.3450292 49.8050682,71.3450292 C49.0870045,71.3450292 48.1629846,71.328323 47.0886723,71.283773 C45.9976608,71.2503605 45.3296946,71.2280855 45.1293047,71.2280855 C44.2498159,71.2280855 43.4259909,71.216948 42.6800953,71.1779668 C41.9008014,71.1389855 40.781958,70.9997668 39.3068659,70.7380356 C37.7983756,70.4874418 36.4791423,70.1254731 35.3213342,69.6465607 C34.1690925,69.1787857 32.8943903,68.4381421 31.5139268,67.4134922 C30.1223305,66.3999798 28.9700888,65.2194049 28.018237,63.8773363 C27.0830843,62.5352677 26.298224,60.7866804 25.6803552,58.6482806 C25.0736192,56.4987433 24.7563353,54.0874748 24.7563353,51.4033376 C24.7563353,47.2657568 26.1034005,43.7407384 28.7919645,40.8338513 C28.4969461,40.6890638 28.4802469,39.2411889 28.7474334,36.4790892 C28.986788,33.7169895 29.5712584,31.172071 30.5231102,28.8499025 C33.8740741,29.2063025 37.9987654,31.0996773 42.936149,34.5133207 C44.6060645,34.0789582 46.8882824,33.8562082 49.7995018,33.8562082 C52.8554473,33.8562082 55.1376652,34.0789582 56.6684211,34.5133207 C58.9172406,32.9930521 61.0714317,31.751221 63.1254278,30.8045336 C65.2072558,29.8689837 66.7101798,29.3176775 67.6564652,29.17289 L69.0703271,28.8499025 C70.0277453,31.172071 70.6122157,33.7225583 70.8515703,36.4790892 C71.1298895,39.2411889 71.1131904,40.6890638 70.818172,40.8338513 M49.9219623,68.8279545 C55.9503574,68.8279545 60.4925276,68.1095858 63.5818713,66.6561422 C66.6600823,65.2082674 68.2186701,62.2234177 68.2186701,57.7182994 C68.2186701,55.106556 67.2389864,52.9236062 65.2740524,51.1805876 C64.2665367,50.2339002 63.0808967,49.6603191 61.7226987,49.4375691 C60.3978991,49.2203879 58.343903,49.2203879 55.5774096,49.4375691 C52.8220489,49.6603191 50.9350444,49.7605565 49.9219623,49.7605565 C48.5414988,49.7605565 47.0441412,49.6881628 45.1849686,49.5433753 C43.325796,49.4041566 41.8674031,49.3150566 40.8264891,49.2705066 C39.7633095,49.2370941 38.6277669,49.3707441 37.3975958,49.6547503 C36.156292,49.949894 35.1487763,50.4510815 34.336084,51.1750189 C32.4657786,52.8456437 31.5139268,55.0230247 31.5139268,57.7127307 C31.5139268,62.217849 33.0391163,65.2026986 36.083929,66.6505735 C39.1287416,68.1040171 43.6597791,68.8223858 49.6881741,68.8223858 M41.2050032,53.5807186 C42.1512887,53.5807186 42.9639809,54.0484936 43.6542127,55.0007497 C44.3444444,55.9418684 44.6951267,57.105737 44.6951267,58.4812181 C44.6951267,59.862268 44.3500108,61.0261366 43.6542127,61.9672552 C42.9639809,62.9083739 42.1457223,63.3817176 41.2050032,63.3817176 C40.1919212,63.3817176 39.3291315,62.9139426 38.6333333,61.9672552 C37.9431016,61.0261366 37.5924193,59.862268 37.5924193,58.4812181 C37.5924193,57.1001683 37.9375352,55.9418684 38.6333333,55.0007497 C39.3291315,54.0484936 40.1919212,53.5807186 41.2050032,53.5807186" id="Shape"></path>
        </g>
    </g>
</svg>